<mxfile host="app.diagrams.net" agent="Mozilla/5.0 (Windows NT 10.0; Win64; x64) AppleWebKit/537.36 (KHTML, like Gecko) Chrome/139.0.0.0 Safari/537.36" version="28.1.1">
  <diagram name="Page-1" id="KxWYPJBata91MjEmcLn-">
    <mxGraphModel dx="1042" dy="574" grid="1" gridSize="10" guides="1" tooltips="1" connect="1" arrows="1" fold="1" page="1" pageScale="1" pageWidth="850" pageHeight="1100" math="0" shadow="0">
      <root>
        <mxCell id="0" />
        <mxCell id="1" parent="0" />
        <mxCell id="cAUdWC-CdCGEFJcLNa4o-1" value="" style="endArrow=none;html=1;rounded=0;" edge="1" parent="1">
          <mxGeometry width="50" height="50" relative="1" as="geometry">
            <mxPoint x="250" y="1090" as="sourcePoint" />
            <mxPoint x="250" as="targetPoint" />
          </mxGeometry>
        </mxCell>
        <mxCell id="cAUdWC-CdCGEFJcLNa4o-2" value="" style="endArrow=none;html=1;rounded=0;" edge="1" parent="1">
          <mxGeometry width="50" height="50" relative="1" as="geometry">
            <mxPoint x="560" y="1090" as="sourcePoint" />
            <mxPoint x="560" as="targetPoint" />
          </mxGeometry>
        </mxCell>
        <mxCell id="cAUdWC-CdCGEFJcLNa4o-3" value="&lt;font style=&quot;font-size: 18px;&quot;&gt;Guru&lt;/font&gt;" style="text;html=1;align=center;verticalAlign=middle;whiteSpace=wrap;rounded=0;" vertex="1" parent="1">
          <mxGeometry x="390" y="10" width="60" height="30" as="geometry" />
        </mxCell>
        <mxCell id="cAUdWC-CdCGEFJcLNa4o-4" value="&lt;font style=&quot;font-size: 18px;&quot;&gt;admin&lt;/font&gt;" style="text;html=1;align=center;verticalAlign=middle;whiteSpace=wrap;rounded=0;" vertex="1" parent="1">
          <mxGeometry x="90" y="10" width="60" height="30" as="geometry" />
        </mxCell>
        <mxCell id="cAUdWC-CdCGEFJcLNa4o-5" value="&lt;font style=&quot;font-size: 18px;&quot;&gt;siswa&lt;/font&gt;" style="text;html=1;align=center;verticalAlign=middle;whiteSpace=wrap;rounded=0;" vertex="1" parent="1">
          <mxGeometry x="690" y="10" width="60" height="30" as="geometry" />
        </mxCell>
        <mxCell id="cAUdWC-CdCGEFJcLNa4o-6" value="" style="endArrow=none;html=1;rounded=0;" edge="1" parent="1">
          <mxGeometry width="50" height="50" relative="1" as="geometry">
            <mxPoint y="60" as="sourcePoint" />
            <mxPoint x="840" y="60" as="targetPoint" />
          </mxGeometry>
        </mxCell>
        <mxCell id="cAUdWC-CdCGEFJcLNa4o-7" value="" style="ellipse;whiteSpace=wrap;html=1;aspect=fixed;" vertex="1" parent="1">
          <mxGeometry x="90" y="80" width="60" height="60" as="geometry" />
        </mxCell>
        <mxCell id="cAUdWC-CdCGEFJcLNa4o-8" value="" style="endArrow=classic;html=1;rounded=0;" edge="1" parent="1">
          <mxGeometry width="50" height="50" relative="1" as="geometry">
            <mxPoint x="120" y="140" as="sourcePoint" />
            <mxPoint x="120" y="170" as="targetPoint" />
          </mxGeometry>
        </mxCell>
        <mxCell id="cAUdWC-CdCGEFJcLNa4o-9" value="login admin" style="rounded=1;whiteSpace=wrap;html=1;" vertex="1" parent="1">
          <mxGeometry x="70" y="180" width="100" height="40" as="geometry" />
        </mxCell>
        <mxCell id="cAUdWC-CdCGEFJcLNa4o-10" value="setup siswa" style="rounded=1;whiteSpace=wrap;html=1;" vertex="1" parent="1">
          <mxGeometry x="70" y="260" width="100" height="40" as="geometry" />
        </mxCell>
        <mxCell id="cAUdWC-CdCGEFJcLNa4o-11" value="" style="endArrow=classic;html=1;rounded=0;entryX=0.5;entryY=0;entryDx=0;entryDy=0;" edge="1" parent="1" target="cAUdWC-CdCGEFJcLNa4o-10">
          <mxGeometry width="50" height="50" relative="1" as="geometry">
            <mxPoint x="120" y="220" as="sourcePoint" />
            <mxPoint x="170" y="170" as="targetPoint" />
          </mxGeometry>
        </mxCell>
        <mxCell id="cAUdWC-CdCGEFJcLNa4o-12" value="keola data" style="rounded=1;whiteSpace=wrap;html=1;" vertex="1" parent="1">
          <mxGeometry x="70" y="340" width="100" height="40" as="geometry" />
        </mxCell>
        <mxCell id="cAUdWC-CdCGEFJcLNa4o-13" value="" style="endArrow=classic;html=1;rounded=0;entryX=0.5;entryY=0;entryDx=0;entryDy=0;" edge="1" parent="1">
          <mxGeometry width="50" height="50" relative="1" as="geometry">
            <mxPoint x="119.5" y="300" as="sourcePoint" />
            <mxPoint x="119.5" y="340" as="targetPoint" />
          </mxGeometry>
        </mxCell>
        <mxCell id="cAUdWC-CdCGEFJcLNa4o-15" value="" style="endArrow=classic;html=1;rounded=0;entryX=0.5;entryY=0;entryDx=0;entryDy=0;" edge="1" parent="1">
          <mxGeometry width="50" height="50" relative="1" as="geometry">
            <mxPoint x="119.5" y="380" as="sourcePoint" />
            <mxPoint x="119.5" y="420" as="targetPoint" />
          </mxGeometry>
        </mxCell>
        <mxCell id="cAUdWC-CdCGEFJcLNa4o-16" value="setup guru" style="rounded=1;whiteSpace=wrap;html=1;" vertex="1" parent="1">
          <mxGeometry x="70" y="420" width="100" height="40" as="geometry" />
        </mxCell>
        <mxCell id="cAUdWC-CdCGEFJcLNa4o-17" value="" style="endArrow=classic;html=1;rounded=0;entryX=0.5;entryY=0;entryDx=0;entryDy=0;" edge="1" parent="1">
          <mxGeometry width="50" height="50" relative="1" as="geometry">
            <mxPoint x="120" y="460" as="sourcePoint" />
            <mxPoint x="120" y="500" as="targetPoint" />
          </mxGeometry>
        </mxCell>
        <mxCell id="cAUdWC-CdCGEFJcLNa4o-18" value="kelola data" style="rounded=1;whiteSpace=wrap;html=1;" vertex="1" parent="1">
          <mxGeometry x="70" y="500" width="100" height="40" as="geometry" />
        </mxCell>
        <mxCell id="cAUdWC-CdCGEFJcLNa4o-19" value="" style="endArrow=classic;html=1;rounded=0;entryX=0.5;entryY=0;entryDx=0;entryDy=0;" edge="1" parent="1">
          <mxGeometry width="50" height="50" relative="1" as="geometry">
            <mxPoint x="119.5" y="540" as="sourcePoint" />
            <mxPoint x="119.5" y="580" as="targetPoint" />
          </mxGeometry>
        </mxCell>
        <mxCell id="cAUdWC-CdCGEFJcLNa4o-20" value="setup pelajaran" style="rounded=1;whiteSpace=wrap;html=1;" vertex="1" parent="1">
          <mxGeometry x="70" y="580" width="100" height="40" as="geometry" />
        </mxCell>
        <mxCell id="cAUdWC-CdCGEFJcLNa4o-21" value="" style="endArrow=classic;html=1;rounded=0;entryX=0.5;entryY=0;entryDx=0;entryDy=0;" edge="1" parent="1">
          <mxGeometry width="50" height="50" relative="1" as="geometry">
            <mxPoint x="119.5" y="620" as="sourcePoint" />
            <mxPoint x="119.5" y="660" as="targetPoint" />
          </mxGeometry>
        </mxCell>
        <mxCell id="cAUdWC-CdCGEFJcLNa4o-22" value="kelola admin" style="rounded=1;whiteSpace=wrap;html=1;" vertex="1" parent="1">
          <mxGeometry x="70" y="660" width="100" height="40" as="geometry" />
        </mxCell>
        <mxCell id="cAUdWC-CdCGEFJcLNa4o-23" value="" style="endArrow=classic;html=1;rounded=0;entryX=0.5;entryY=0;entryDx=0;entryDy=0;" edge="1" parent="1">
          <mxGeometry width="50" height="50" relative="1" as="geometry">
            <mxPoint x="119.5" y="700" as="sourcePoint" />
            <mxPoint x="119.5" y="740" as="targetPoint" />
          </mxGeometry>
        </mxCell>
        <mxCell id="cAUdWC-CdCGEFJcLNa4o-24" value="" style="ellipse;whiteSpace=wrap;html=1;aspect=fixed;" vertex="1" parent="1">
          <mxGeometry x="90" y="740" width="60" height="60" as="geometry" />
        </mxCell>
        <mxCell id="cAUdWC-CdCGEFJcLNa4o-25" value="" style="endArrow=classic;html=1;rounded=0;" edge="1" parent="1">
          <mxGeometry width="50" height="50" relative="1" as="geometry">
            <mxPoint x="250" y="400" as="sourcePoint" />
            <mxPoint x="350" y="400" as="targetPoint" />
          </mxGeometry>
        </mxCell>
        <mxCell id="cAUdWC-CdCGEFJcLNa4o-26" value="login guru" style="rounded=1;whiteSpace=wrap;html=1;" vertex="1" parent="1">
          <mxGeometry x="350" y="380" width="100" height="40" as="geometry" />
        </mxCell>
        <mxCell id="cAUdWC-CdCGEFJcLNa4o-27" value="" style="endArrow=classic;html=1;rounded=0;entryX=0.5;entryY=0;entryDx=0;entryDy=0;" edge="1" parent="1">
          <mxGeometry width="50" height="50" relative="1" as="geometry">
            <mxPoint x="399.5" y="420" as="sourcePoint" />
            <mxPoint x="399.5" y="460" as="targetPoint" />
          </mxGeometry>
        </mxCell>
        <mxCell id="cAUdWC-CdCGEFJcLNa4o-28" value="input nilai" style="rounded=1;whiteSpace=wrap;html=1;" vertex="1" parent="1">
          <mxGeometry x="350" y="460" width="100" height="40" as="geometry" />
        </mxCell>
        <mxCell id="cAUdWC-CdCGEFJcLNa4o-29" value="" style="endArrow=classic;html=1;rounded=0;entryX=0.5;entryY=0;entryDx=0;entryDy=0;" edge="1" parent="1">
          <mxGeometry width="50" height="50" relative="1" as="geometry">
            <mxPoint x="399.5" y="500" as="sourcePoint" />
            <mxPoint x="399.5" y="540" as="targetPoint" />
          </mxGeometry>
        </mxCell>
        <mxCell id="cAUdWC-CdCGEFJcLNa4o-30" value="update nilai" style="rounded=1;whiteSpace=wrap;html=1;" vertex="1" parent="1">
          <mxGeometry x="350" y="540" width="100" height="40" as="geometry" />
        </mxCell>
        <mxCell id="cAUdWC-CdCGEFJcLNa4o-31" value="" style="endArrow=classic;html=1;rounded=0;entryX=0.5;entryY=0;entryDx=0;entryDy=0;" edge="1" parent="1">
          <mxGeometry width="50" height="50" relative="1" as="geometry">
            <mxPoint x="399.5" y="580" as="sourcePoint" />
            <mxPoint x="399.5" y="620" as="targetPoint" />
          </mxGeometry>
        </mxCell>
        <mxCell id="cAUdWC-CdCGEFJcLNa4o-32" value="hapus nilai" style="rounded=1;whiteSpace=wrap;html=1;" vertex="1" parent="1">
          <mxGeometry x="350" y="620" width="100" height="40" as="geometry" />
        </mxCell>
        <mxCell id="cAUdWC-CdCGEFJcLNa4o-33" value="" style="endArrow=classic;html=1;rounded=0;entryX=0.5;entryY=0;entryDx=0;entryDy=0;" edge="1" parent="1" target="cAUdWC-CdCGEFJcLNa4o-34">
          <mxGeometry width="50" height="50" relative="1" as="geometry">
            <mxPoint x="399.5" y="660" as="sourcePoint" />
            <mxPoint x="400" y="730" as="targetPoint" />
          </mxGeometry>
        </mxCell>
        <mxCell id="cAUdWC-CdCGEFJcLNa4o-34" value="" style="ellipse;whiteSpace=wrap;html=1;aspect=fixed;" vertex="1" parent="1">
          <mxGeometry x="370" y="740" width="60" height="60" as="geometry" />
        </mxCell>
        <mxCell id="cAUdWC-CdCGEFJcLNa4o-35" value="login siswa" style="rounded=1;whiteSpace=wrap;html=1;" vertex="1" parent="1">
          <mxGeometry x="670" y="280" width="100" height="40" as="geometry" />
        </mxCell>
        <mxCell id="cAUdWC-CdCGEFJcLNa4o-36" value="" style="endArrow=classic;html=1;rounded=0;" edge="1" parent="1">
          <mxGeometry width="50" height="50" relative="1" as="geometry">
            <mxPoint x="719.5" y="320" as="sourcePoint" />
            <mxPoint x="720" y="510" as="targetPoint" />
          </mxGeometry>
        </mxCell>
        <mxCell id="cAUdWC-CdCGEFJcLNa4o-37" value="lihat nilai" style="rounded=1;whiteSpace=wrap;html=1;" vertex="1" parent="1">
          <mxGeometry x="670" y="510" width="100" height="40" as="geometry" />
        </mxCell>
        <mxCell id="cAUdWC-CdCGEFJcLNa4o-38" value="" style="endArrow=classic;html=1;rounded=0;entryX=0.5;entryY=0;entryDx=0;entryDy=0;" edge="1" parent="1" target="cAUdWC-CdCGEFJcLNa4o-39">
          <mxGeometry width="50" height="50" relative="1" as="geometry">
            <mxPoint x="719.5" y="550" as="sourcePoint" />
            <mxPoint x="720" y="730" as="targetPoint" />
          </mxGeometry>
        </mxCell>
        <mxCell id="cAUdWC-CdCGEFJcLNa4o-39" value="" style="ellipse;whiteSpace=wrap;html=1;aspect=fixed;" vertex="1" parent="1">
          <mxGeometry x="690" y="740" width="60" height="60" as="geometry" />
        </mxCell>
      </root>
    </mxGraphModel>
  </diagram>
</mxfile>
